<?xml version="1.0" encoding="utf-8"?>
<!-- Generator: Adobe Illustrator 24.2.3, SVG Export Plug-In . SVG Version: 6.00 Build 0)  -->
<svg version="1.1" id="Layer_1" xmlns="http://www.w3.org/2000/svg" xmlns:xlink="http://www.w3.org/1999/xlink" x="0px" y="0px"
	 viewBox="0 0 517 232" style="enable-background:new 0 0 517 232;" xml:space="preserve">
<style type="text/css">
	.st0{fill:#977FAA;}
	.st1{fill:#491F67;}
</style>
<rect x="206.33" y="125.72" class="st0" width="16.12" height="77.35"/>
<rect x="178.34" y="48.99" class="st1" width="16.12" height="56.36"/>
<rect x="368.46" y="27.3" class="st1" width="33.29" height="16.25"/>
<rect x="106.62" y="89.09" class="st0" width="44.29" height="16.25"/>
<path class="st1" d="M328.46,105.33h-8.06V89.08h8.06c12.11,0,13.92-11.66,13.92-18.61V27.3h16.12v43.17
	C358.51,91.65,346.72,105.33,328.46,105.33"/>
<path class="st1" d="M239.46,73.35h-9.53c-11.32,0-20.52-9.64-20.52-21.49V27.3h16.12v24.57c0,3.09,2.32,5.24,4.4,5.24h9.53V73.35z"
	/>
<path class="st0" d="M74.34,57.56H58.22v-9.6c0-11.4,9.57-20.68,21.33-20.68h22.12v16.25H79.54c-3.07,0-5.2,2.33-5.2,4.43V57.56z"/>
<polygon class="st1" points="262.84,147.51 262.84,186.83 234.68,186.83 234.68,203.08 262.84,203.08 278.97,203.08 278.97,186.83 
	278.97,147.51 "/>
<rect x="160.58" y="125.72" class="st1" width="40.73" height="16.25"/>
<rect x="163.51" y="156.74" class="st0" width="16.12" height="46.34"/>
<rect x="385.63" y="50.45" class="st0" width="16.12" height="31.98"/>
<rect x="167.03" y="27.3" class="st0" width="27.43" height="16.25"/>
<rect x="251.54" y="125.72" class="st0" width="27.43" height="16.25"/>
<polygon class="st1" points="319.2,125.72 307.9,125.72 307.9,141.97 319.2,141.97 319.2,180.71 335.33,180.71 335.33,141.97 
	335.33,125.72 "/>
<path class="st0" d="M232.03,27.3v16.25h27.23v24.65c0,11.52-9.3,20.89-20.73,20.89H210.1v16.24h28.42
	c20.32,0,36.86-16.66,36.86-37.13v-40.9L232.03,27.3z"/>
<path class="st1" d="M64.81,106c-20.32,0-36.86-16.66-36.86-37.13V27.29h16.12v41.58c0,11.52,9.3,20.89,20.73,20.89
	c11.43,0,20.73-9.37,20.73-20.89V49.34h16.12v19.53C101.67,89.34,85.13,106,64.81,106"/>
<polygon class="st0" points="335.33,27.3 288.15,27.3 288.15,43.55 296.3,43.55 290.29,105.33 306.33,105.33 312.47,43.55 
	335.33,43.55 "/>
<polygon class="st1" points="123.48,27.3 123.48,43.55 134.78,43.55 134.78,84.07 150.91,84.07 150.91,43.55 150.91,27.3 "/>
<rect x="291.04" y="186.83" class="st0" width="44.29" height="16.25"/>
<rect x="464.19" y="147.51" class="st1" width="16.12" height="55.57"/>
<rect x="427.24" y="125.72" class="st0" width="53.08" height="16.25"/>
<path class="st0" d="M467.13,43.55V27.3l-51.68-0.01v41.58c0,19.47,14.96,35.48,33.9,37.01V89.52
	c-10.03-1.45-17.78-10.15-17.78-20.65V43.55H467.13z"/>
<path class="st1" d="M473.05,27.29v41.58c0,10.5-7.74,19.2-17.78,20.65v16.35c18.95-1.52,33.9-17.53,33.9-37.01V27.29H473.05z"/>
<path class="st1" d="M390.25,184.13l-21.41-58.41h-17.17l22.54,61.84h-23.66v16.25h28.42c5.69,0,13.1-1.72,16.96-4.2L390.25,184.13z
	"/>
<path class="st0" d="M399.69,125.7v40.97c0,5.35-2.02,10.22-5.31,13.92l5.95,16.32c9.37-6.74,15.49-17.77,15.49-30.23V125.7H399.69z
	"/>
</svg>
