<?xml version="1.0" standalone="no"?>
<!DOCTYPE svg PUBLIC "-//W3C//DTD SVG 20010904//EN"
 "http://www.w3.org/TR/2001/REC-SVG-20010904/DTD/svg10.dtd">
<svg version="1.0" xmlns="http://www.w3.org/2000/svg"
 width="2068.000000pt" height="928.000000pt" viewBox="0 0 2068.000000 928.000000"
 preserveAspectRatio="xMidYMid meet">
<metadata>
Created by potrace 1.16, written by Peter Selinger 2001-2019
</metadata>
<g transform="translate(0.000000,928.000000) scale(0.100000,-0.100000)"
fill="#000000" stroke="none">
<path d="M1110 7336 c0 -900 3 -988 46 -1165 122 -514 518 -930 1024 -1077
132 -38 251 -54 416 -54 182 0 297 18 455 70 244 81 428 197 609 386 192 201
318 439 382 722 20 91 22 128 25 595 l4 497 -325 0 -324 0 -4 -452 c-4 -426
-6 -458 -26 -533 -27 -101 -98 -242 -163 -322 -105 -132 -276 -241 -444 -283
-158 -40 -369 -22 -519 44 -187 83 -354 255 -434 449 -63 150 -62 139 -62
1102 l0 875 -330 0 -330 0 0 -854z"/>
<path d="M4930 7860 l0 -330 230 0 230 0 0 -810 0 -810 325 0 325 0 0 1140 0
1140 -555 0 -555 0 0 -330z"/>
<path d="M8373 7623 c4 -618 1 -590 64 -757 51 -137 180 -298 309 -387 25 -17
78 -46 117 -64 135 -62 167 -67 455 -72 l262 -5 0 331 0 331 -199 0 c-117 0
-211 4 -228 11 -40 15 -82 57 -104 104 -17 37 -19 75 -19 558 l0 517 -331 0
-330 0 4 -567z"/>
<path d="M13687 7228 c-3 -726 -7 -975 -16 -1013 -60 -240 -145 -366 -296
-440 -91 -45 -161 -55 -382 -55 l-183 0 0 -330 0 -330 198 0 c304 0 477 29
646 109 408 191 648 594 686 1155 5 78 10 529 10 1004 l0 862 -330 0 -329 0
-4 -962z"/>
<path d="M14730 7860 l0 -330 675 0 675 0 0 330 0 330 -675 0 -675 0 0 -330z"/>
<path d="M18918 7298 c-3 -887 -4 -894 -26 -973 -83 -299 -324 -539 -604 -602
l-78 -18 0 -333 0 -334 53 7 c341 42 626 182 872 429 213 214 338 443 407 744
22 96 22 109 25 1035 l4 937 -325 0 -325 0 -3 -892z"/>
<path d="M7130 6195 l0 -1135 325 0 325 0 0 1135 0 1135 -325 0 -325 0 0
-1135z"/>
<path d="M6420 3930 l0 -330 820 0 820 0 0 330 0 330 -820 0 -820 0 0 -330z"/>
<path d="M12310 3930 l0 -330 225 0 225 0 0 -775 0 -775 330 0 330 0 0 1105 0
1105 -555 0 -555 0 0 -330z"/>
<path d="M14066 4238 c4 -13 206 -570 450 -1238 l442 -1215 -469 -3 -469 -2 0
-331 0 -330 648 4 c700 4 719 5 917 62 108 32 229 81 245 100 10 12 -99 319
-530 1495 l-543 1480 -349 0 -349 0 7 -22z"/>
<path d="M10510 2595 l0 -785 -565 0 -565 0 0 -330 0 -330 890 0 890 0 0 1115
0 1115 -325 0 -325 0 0 -785z"/>
<path d="M18560 2265 l0 -1115 330 0 330 0 0 1115 0 1115 -330 0 -330 0 0
-1115z"/>
</g>
</svg>
